<?xml version="1.0" encoding="utf-8"?>
<!-- Generator: Adobe Illustrator 20.0.0, SVG Export Plug-In . SVG Version: 6.00 Build 0)  -->
<svg version="1.1" id="Layer_1" xmlns="http://www.w3.org/2000/svg" xmlns:xlink="http://www.w3.org/1999/xlink" x="0px" y="0px"
	 viewBox="0 0 612 193.6" style="enable-background:new 0 0 612 193.6;" xml:space="preserve">
<style type="text/css">
	.st0{fill:#1B2C58;}
	.st1{fill:#C87329;}
	.st2{fill:#FFFFFF;}
</style>
<g>
	<g>
		<g>
			<path class="st0" d="M147.8,144.5c-0.7-0.4-0.7-1-1.1-1.7c-0.2-0.3-0.4,1.4-0.6,1H38.3V63.3h103.1v82.2c2.3,0.2,2.1,1.7,2.9,3.7
				c0.7-0.4,1.5-0.6,2.3-0.7c0.6-0.1,1.1,2.2,1.6,2.3V46.2c0-4.1-3.3-7.4-7.4-7.4h-102c-4.1,0-7.4,3.3-7.4,7.4v97.2
				c0,4.1,3.3,7.4,7.4,7.4h109.3c-0.6-1.3-1.1-2.7-0.7-4.1C147.6,145.9,147.3,145.2,147.8,144.5z M131.2,51.3c0-1.5,1.2-2.7,2.7-2.7
				h2.7c1.5,0,2.7,1.2,2.7,2.7v3.1c0,1.5-1.2,2.7-2.7,2.7h-2.7c-1.5,0-2.7-1.2-2.7-2.7V51.3z M118.5,51.3c0-1.5,1.2-2.7,2.7-2.7h2.7
				c1.5,0,2.7,1.2,2.7,2.7v3.1c0,1.5-1.2,2.7-2.7,2.7h-2.7c-1.5,0-2.7-1.2-2.7-2.7V51.3z M105.8,51.3c0-1.5,1.2-2.7,2.7-2.7h2.7
				c1.5,0,2.7,1.2,2.7,2.7v3.1c0,1.5-1.2,2.7-2.7,2.7h-2.7c-1.5,0-2.7-1.2-2.7-2.7V51.3z"/>
		</g>
	</g>
	<g>
		<path class="st1" d="M76.3,150.9c0-34.1,27.5-64.2,61.3-64.2c33.9,0,61.3,30.9,61.3,65"/>
	</g>
	<g>
		<g>
			<path class="st1" d="M205.6,39.3h-49.8c-4.2,0-7.5,3.4-7.5,7.6v96.7c0,4.2,3.4,7.6,7.5,7.6h49.8c4.2,0,7.6-3.4,7.6-7.5V46.9
				C213.1,42.7,209.7,39.3,205.6,39.3z M172.7,44.8h15.9c0.5,0,0.9,0.4,0.9,0.9c0,0.5-0.4,0.9-0.9,0.9h-15.9c-0.5,0-0.9-0.4-0.9-0.9
				C171.8,45.2,172.2,44.8,172.7,44.8z M180.7,147.3c-2.1,0-3.8-1.7-3.8-3.8c0-2.1,1.7-3.8,3.8-3.8c2.1,0,3.8,1.7,3.8,3.8
				C184.4,145.6,182.8,147.3,180.7,147.3z M207.9,137.1h-54.4V51.3h54.4V137.1z"/>
		</g>
	</g>
	<g>
		<path class="st0" d="M80.2,150.9c0-31.9,25.9-60.1,57.8-60.1c31.9,0,57.8,28.9,57.8,60.9"/>
	</g>
	<g>
		<g>
			<path class="st2" d="M137.8,111.2c8.6,0.1,14-0.4,14.7,9.1h10.5c0-14.7-12.9-16.7-25.4-16.7c-12.6,0-25.4,2-25.4,16.7h10.4
				C123.3,110.5,129.3,111.1,137.8,111.2z M117.3,125c2.5,0,4.7,0.2,5.1-2.4c0.1-0.3,0.1-0.7,0.1-1.2h-0.1H112
				C112,125.2,114.4,125,117.3,125z M152.5,121.4L152.5,121.4c-0.1,0.4-0.1,0.8,0,1.2c0.5,2.3,2.6,2.2,5.2,2.2
				c2.9,0,5.3,0.2,5.3-3.3H152.5z M147.4,118.9v-1.5c0-0.7-0.8-0.7-1.7-0.7h-1.5c-0.9,0-1.7,0-1.7,0.7v1.3v1h-10.9v-1v-1.3
				c0-0.7-0.8-0.7-1.7-0.7h-1.5c-0.9,0-1.7,0-1.7,0.7v1.5v1.3c-2.5,2.6-10.6,13.6-10.9,14.9l0,8.9c0,0.8,0.7,1.5,1.5,1.5h39.6
				c0.8,0,1.5-0.7,1.5-1.5V135c-0.3-1.3-8.4-12.3-10.9-14.8V118.9z"/>
		</g>
	</g>
	<g>
		<g>
			<path class="st1" d="M140.2,133l9.1-4.5c-0.3-1.4-1.6-2.5-3.1-2.5h-17.3c-1.5,0-2.8,1.1-3.1,2.5l9.1,4.5
				C136.2,133.7,138.8,133.7,140.2,133z M140.7,134c-0.8,0.4-2,0.6-3.1,0.6c-1.2,0-2.3-0.2-3.1-0.6l-2.5-1.2l-6.2,3.1v2
				c0,1.8,1.5,3.2,3.2,3.2h17.3c1.8,0,3.2-1.4,3.2-3.2v-2l-6.2-3.1L140.7,134z M144.4,132.1l5,2.5v-5L144.4,132.1z M125.6,129.6v5
				l5-2.5L125.6,129.6z"/>
		</g>
	</g>
	<g>
		<g>
			<path class="st1" d="M251.2,110.7h6.9l8.6,26l8.7-26h6.9l6.3,37.3h-6.9l-4-23.5l-7.9,23.5h-6.3l-7.8-23.5l-4.1,23.5h-6.9
				L251.2,110.7z"/>
			<path class="st1" d="M313.8,120.4h6.9v27.6h-6.9V145c-1.3,1.3-2.7,2.2-4.1,2.8c-1.4,0.6-2.8,0.8-4.4,0.8c-3.6,0-6.6-1.4-9.2-4.1
				c-2.6-2.8-3.9-6.2-3.9-10.3c0-4.3,1.3-7.7,3.8-10.5c2.5-2.7,5.6-4.1,9.2-4.1c1.7,0,3.2,0.3,4.7,0.9c1.5,0.6,2.8,1.6,4,2.8V120.4z
				 M306.6,126.1c-2.1,0-3.9,0.8-5.3,2.3c-1.4,1.5-2.1,3.4-2.1,5.8c0,2.4,0.7,4.3,2.2,5.9c1.4,1.5,3.2,2.3,5.3,2.3
				c2.2,0,4-0.8,5.4-2.3c1.4-1.5,2.1-3.5,2.1-5.9c0-2.4-0.7-4.3-2.1-5.8C310.6,126.8,308.8,126.1,306.6,126.1z"/>
			<path class="st1" d="M330.4,109c1.2,0,2.3,0.4,3.1,1.3c0.9,0.9,1.3,1.9,1.3,3.2c0,1.2-0.4,2.3-1.3,3.2c-0.9,0.9-1.9,1.3-3.1,1.3
				c-1.2,0-2.3-0.4-3.1-1.3c-0.9-0.9-1.3-2-1.3-3.2c0-1.2,0.4-2.3,1.3-3.1C328.2,109.5,329.2,109,330.4,109z M327,120.4h6.9v27.6
				H327V120.4z"/>
			<path class="st1" d="M340.2,120.4h6.9v2.8c1.6-1.3,3-2.2,4.3-2.8c1.3-0.5,2.6-0.8,3.9-0.8c2.7,0,5.1,1,7,2.9
				c1.6,1.6,2.4,4,2.4,7.2v18.2h-6.8v-12.1c0-3.3-0.1-5.5-0.4-6.6s-0.8-1.9-1.5-2.5c-0.7-0.6-1.6-0.8-2.7-0.8
				c-1.4,0-2.6,0.5-3.6,1.4c-1,0.9-1.7,2.2-2.1,3.9c-0.2,0.9-0.3,2.7-0.3,5.6v11.1h-6.9V120.4z"/>
			<path class="st1" d="M386.6,110.7h6.8l15.9,24.5v-24.5h7.1v37.3h-6.8l-15.9-24.4v24.4h-7.1V110.7z"/>
			<path class="st1" d="M424.2,120.4h7v13.3c0,2.6,0.2,4.4,0.5,5.4c0.4,1,0.9,1.8,1.7,2.3c0.8,0.6,1.8,0.8,2.9,0.8s2.1-0.3,2.9-0.8
				c0.8-0.5,1.4-1.4,1.8-2.4c0.3-0.8,0.4-2.5,0.4-5.1v-13.5h6.9v11.7c0,4.8-0.4,8.1-1.1,9.9c-0.9,2.2-2.3,3.8-4.1,5
				c-1.8,1.2-4.1,1.7-6.9,1.7c-3,0-5.5-0.7-7.3-2c-1.9-1.4-3.2-3.2-3.9-5.6c-0.5-1.7-0.8-4.7-0.8-9.1V120.4z"/>
			<path class="st1" d="M455.3,120.4h6.9v3.2c1.2-1.3,2.5-2.3,3.9-2.9c1.4-0.6,3-1,4.7-1c1.7,0,3.3,0.4,4.7,1.3
				c1.4,0.8,2.5,2.1,3.3,3.7c1.1-1.6,2.4-2.9,4-3.7c1.6-0.8,3.3-1.3,5.2-1.3c2,0,3.7,0.5,5.2,1.4c1.5,0.9,2.6,2.1,3.2,3.6
				c0.7,1.5,1,3.9,1,7.2v16.2h-7v-14c0-3.1-0.4-5.2-1.2-6.3c-0.8-1.1-1.9-1.7-3.5-1.7c-1.2,0-2.2,0.3-3.2,1
				c-0.9,0.7-1.6,1.6-2.1,2.8c-0.5,1.2-0.7,3.1-0.7,5.7v12.4h-7v-13.4c0-2.5-0.2-4.3-0.5-5.4c-0.4-1.1-0.9-1.9-1.6-2.5
				c-0.7-0.5-1.6-0.8-2.6-0.8c-1.2,0-2.2,0.3-3.1,1c-0.9,0.7-1.6,1.6-2.1,2.9c-0.5,1.2-0.7,3.2-0.7,5.8v12.3h-6.9V120.4z"/>
			<path class="st1" d="M511,109.7v13.7c1.3-1.2,2.6-2.2,4.1-2.8c1.5-0.6,3-0.9,4.7-0.9c3.6,0,6.7,1.4,9.2,4.1
				c2.5,2.7,3.8,6.2,3.8,10.5c0,4.1-1.3,7.5-3.9,10.3c-2.6,2.8-5.7,4.1-9.2,4.1c-1.6,0-3.1-0.3-4.4-0.8c-1.4-0.6-2.7-1.5-4.1-2.8
				v2.9h-6.9v-38.2H511z M518.2,126.1c-2.2,0-4,0.7-5.4,2.2c-1.4,1.5-2.2,3.4-2.2,5.8c0,2.4,0.7,4.4,2.2,5.9
				c1.4,1.5,3.2,2.3,5.4,2.3c2.1,0,3.9-0.8,5.3-2.3c1.4-1.5,2.2-3.5,2.2-5.9c0-2.4-0.7-4.3-2.1-5.8
				C522.2,126.8,520.4,126.1,518.2,126.1z"/>
			<path class="st1" d="M566,136.2h-22.2c0.3,2,1.2,3.5,2.6,4.7c1.4,1.2,3.2,1.7,5.3,1.7c2.6,0,4.8-0.9,6.7-2.7l5.8,2.7
				c-1.5,2.1-3.2,3.6-5.2,4.6c-2,1-4.4,1.5-7.2,1.5c-4.3,0-7.8-1.4-10.6-4.1c-2.7-2.7-4.1-6.1-4.1-10.2c0-4.2,1.4-7.7,4.1-10.5
				c2.7-2.8,6.1-4.2,10.2-4.2c4.3,0,7.9,1.4,10.6,4.2c2.7,2.8,4.1,6.4,4.1,11L566,136.2z M559,130.7c-0.5-1.5-1.4-2.8-2.7-3.7
				c-1.3-1-2.9-1.4-4.7-1.4c-1.9,0-3.6,0.5-5.1,1.6c-0.9,0.7-1.8,1.9-2.5,3.6H559z"/>
			<path class="st1" d="M569.9,120.4h5.9v3.5c0.6-1.4,1.5-2.4,2.6-3.1c1.1-0.7,2.2-1.1,3.5-1.1c0.9,0,1.8,0.2,2.8,0.7l-2.2,6
				c-0.8-0.4-1.5-0.6-2-0.6c-1.1,0-2,0.7-2.7,2c-0.7,1.3-1.1,3.9-1.1,7.8l0,1.3v11.1h-6.9V120.4z"/>
		</g>
		<g>
			<path class="st0" d="M246,39.7H277l-1.1,9h-10.6l-5.7,41.6h-9.4l5.7-41.6h-11L246,39.7z"/>
			<path class="st0" d="M302.6,79.4l8.1,4.2c-1.8,2.4-4.2,4.3-7.2,5.7c-3,1.4-6.3,2.1-10,2.1c-5.7,0-10.2-1.6-13.5-4.8
				c-3.3-3.2-4.9-7.5-4.9-12.8c0-6.1,2.1-11.2,6.2-15.4c4.1-4.2,9.1-6.3,14.9-6.3c3.5,0,6.6,0.8,9.4,2.3c2.7,1.5,4.9,3.8,6.5,6.7
				c1.6,2.9,2.4,6.1,2.4,9.6c0,1.1-0.1,2.3-0.3,3.8h-29.9c0.1,2.6,0.9,4.7,2.6,6.2c1.6,1.5,3.9,2.3,6.7,2.3
				C296.9,82.8,299.9,81.7,302.6,79.4z M304.9,67.5c-0.7-2.3-1.8-4-3.4-5.2c-1.6-1.2-3.5-1.8-5.8-1.8c-2.3,0-4.3,0.6-6.1,1.8
				c-1.8,1.2-3.2,2.9-4.1,5.2H304.9z"/>
			<path class="st0" d="M320.1,52.9h10.1l6.5,10.6l7.8-10.6h10.7l-13.7,18.6l11.6,18.9h-10.1l-7-11.4l-8.4,11.4H317L331.2,71
				L320.1,52.9z"/>
			<path class="st0" d="M366.1,38.9h9.1l-1.9,13.9h5.8l-1.1,7.9h-5.8l-4,29.5h-9.2l4-29.5h-4.5l1.1-7.9h4.5L366.1,38.9z"/>
			<path class="st0" d="M411.3,39.7h8.6l8.6,35.3l17.5-35.3h8.2l0.7,50.7h-8.9L445.6,60l-15,30.3h-7.3l-7.7-31.8l-8.1,31.8h-9.1
				L411.3,39.7z"/>
			<path class="st0" d="M463.4,52.9h9l7.3,22.2l12.8-22.2h9.9L473,104h-9.7L474,85.2L463.4,52.9z"/>
		</g>
	</g>
</g>
</svg>
